<?xml version="1.0" encoding="UTF-8" standalone="no"?>
<svg
   version="1.1"
   id="Layer_1"
   x="0px"
   y="0px"
   enable-background="new 0 0 1024 576"
   xml:space="preserve"
   sodipodi:docname="file.svg"
   inkscape:export-filename="arquivo svg.svg"
   inkscape:export-xdpi="80.00573"
   inkscape:export-ydpi="80.00573"
   xmlns:inkscape="http://www.inkscape.org/namespaces/inkscape"
   xmlns:sodipodi="http://sodipodi.sourceforge.net/DTD/sodipodi-0.dtd"
   xmlns="http://www.w3.org/2000/svg"
   xmlns:svg="http://www.w3.org/2000/svg"><defs
   id="defs6" /><sodipodi:namedview
   id="namedview6"
   pagecolor="#820505"
   bordercolor="#000000"
   borderopacity="0.25"
   inkscape:showpageshadow="2"
   inkscape:pageopacity="0.0"
   inkscape:pagecheckerboard="0"
   inkscape:deskcolor="#d1d1d1"
   inkscape:export-bgcolor="#00000000"
   inkscape:zoom="1.359375"
   inkscape:cx="504.64368"
   inkscape:cy="278.43678"
   inkscape:window-width="1920"
   inkscape:window-height="1001"
   inkscape:window-x="-9"
   inkscape:window-y="-9"
   inkscape:window-maximized="1"
   inkscape:current-layer="Layer_1"><inkscape:page
     x="0"
     y="0"
     width="1048576"
     height="331776"
     id="page2"
     margin="0"
     bleed="0" /></sodipodi:namedview>
<path
   fill="#000000"
   opacity="1"
   stroke="none"
   d="m 382.53915,333.48413 c 1.31998,1.90476 2.04899,3.66592 -0.78527,3.74988 -6.44074,0.19067 -12.89103,0.0601 -18.48639,0.0601 4.32714,-23.05094 2.67816,-45.65686 1.39718,-68.23679 -0.20764,-3.66006 -1.4368,-7.1889 -3.10623,-10.48135 -3.96088,-7.81169 -11.03583,-9.75032 -18.32104,-4.93315 -6.36936,4.21153 -10.06409,10.53401 -12.995,17.33964 -4.06009,9.42758 -5.768,19.44425 -6.86307,29.55487 -0.69824,6.44638 -1.26086,12.9159 -1.11902,19.43308 0.1236,5.68148 0.20414,11.30441 4.73557,16.76578 -7.98227,0 -15.06369,0 -22.70349,0 5.71423,-9.24698 3.51053,-19.21387 3.70682,-28.84638 0.28506,-13.98822 0.10019,-27.98666 0.0566,-41.98059 -0.0195,-6.27823 0.53546,-12.69658 -4.41578,-18.60471 5.84778,-1.80117 11.09082,-1.40922 16.26822,-0.86204 2.74356,0.28995 2.35306,2.83218 2.35834,4.77762 0.0312,11.48924 0.0154,22.97862 0.0154,35.81126 2.50369,-9.08179 4.56092,-16.97961 8.64575,-24.06842 4.88156,-8.47145 10.97965,-15.78571 21.42994,-17.07545 14.45022,-1.78341 24.85794,7.59823 26.85223,23.85707 0.56601,4.61453 1.41211,9.22476 1.1687,13.97638 2.6731,-8.15488 5.27783,-16.29297 9.85712,-23.62488 7.69787,-12.32512 19.81671,-17.47739 31.36236,-12.86322 11.33701,4.53079 14.48087,14.51526 15.63571,25.33139 1.61286,15.10531 0.46079,30.28988 0.73578,45.43695 0.11402,6.27899 -0.50045,12.68014 4.37348,18.80447 -8.0564,0 -15.17529,0 -21.38285,0 4.40625,-23.70141 3.58774,-47.42111 0.62314,-71.10904 -0.79199,-6.3283 -3.37698,-12.73065 -10.70941,-14.24411 -7.56952,-1.56241 -12.60687,3.20969 -16.7421,8.70963 -8.30789,11.04959 -10.90408,24.17236 -12.68365,37.42416 -1.17346,8.73801 -1.49325,17.582 -1.21912,26.42777 0.0996,3.21402 0.48838,6.29831 2.31012,9.47012 z"
   id="path1"
   style="fill:#324b27;fill-opacity:1"
   inkscape:export-filename="path1.png"
   inkscape:export-xdpi="80.00573"
   inkscape:export-ydpi="80.00573" />
<path
   fill="#000000"
   opacity="1"
   stroke="none"
   d="m 487.61688,336.77478 c -21.1763,-3.54153 -36.21866,-18.405 -39.60751,-38.80145 -3.07822,-18.52683 6.65491,-38.01627 23.71069,-47.47814 17.28894,-9.5912 38.1893,-7.08047 53.43039,6.41854 14.80017,13.10849 19.09992,34.59646 10.7121,53.5336 -7.9632,17.97842 -27.34116,28.68789 -48.24567,26.32745 m 31.11084,-67.97653 c -3.70031,-6.22421 -8.22201,-11.71421 -14.2933,-15.78093 -14.03397,-9.40033 -30.80475,-5.01961 -38.43082,10.0153 -10.61423,20.92597 -3.29608,50.81324 15.952,65.1482 14.51632,10.81097 33.17685,6.24362 40.38479,-10.31504 7.20856,-16.56006 5.26868,-32.78723 -3.61267,-49.06753 z"
   id="path2"
   style="fill:#324b27;fill-opacity:1" />
<path
   fill="#000000"
   opacity="1"
   stroke="none"
   d="m 706.33922,283.49016 c 15.10534,12.89303 13.60211,36.20999 -2.7276,46.95276 -17.0373,11.20831 -39.47669,10.37426 -55.60211,-2.06668 -14.89789,-11.49393 -20.9599,-32.72361 -14.64643,-51.29306 6.30579,-18.54691 23.9704,-31.13179 44.34137,-31.20058 18.13867,-0.0613 31.2962,8.61709 40.27057,24.03322 1.12927,1.93979 2.48303,3.97198 1.95081,7.20456 -6.70404,0.85342 -13.77955,-0.46567 -20.77936,2.03833 2.32562,1.38296 4.61676,2.74536 7.19275,4.33145 m 7.36731,18.55005 c -1.75489,-10.47959 -7.15424,-17.70017 -17.92859,-20.19959 -5.53186,-1.28326 -10.52222,0.34735 -15.38501,2.68698 -10.18128,4.89847 -20.13696,10.56739 -32.20459,7.97608 -2.50702,-0.53833 -3.27698,1.17245 -2.85938,3.35135 2.94519,15.36535 11.33423,31.74981 29.90308,36.31573 20.10669,4.944 41.40155,-9.31705 38.47449,-30.13055 m -21.33319,-43.99213 c -13.70343,-11.72836 -28.46436,-11.81776 -38.96845,0.10803 -6.98242,7.92749 -8.3349,17.92951 -8.95929,27.98731 -0.17444,2.80929 2.30536,3.42593 4.53058,3.62387 6.03271,0.53662 12.23779,0.27887 17.67914,-2.09625 11.99737,-5.23688 23.43133,-11.88166 37.76678,-12.21482 -2.73108,-7.14856 -6.81482,-12.2402 -12.04876,-17.40814 z"
   id="path3"
   style="fill:#ffffff;fill-opacity:1" /><path
   fill="#000000"
   opacity="1"
   stroke="none"
   d="m 697.32772,285.24765 c 15.10535,12.89304 13.60211,36.20999 -2.7276,46.95276 -17.03729,11.20831 -39.47668,10.37427 -55.60211,-2.06668 -14.89789,-11.49393 -20.9599,-32.7236 -14.64642,-51.29306 6.30578,-18.54691 23.9704,-31.13179 44.34137,-31.20058 18.13867,-0.0613 31.2962,8.6171 40.27057,24.03322 1.12927,1.93979 2.48303,3.97199 1.9508,7.20456 -6.70404,0.85343 -13.77954,-0.46567 -20.77936,2.03833 2.32563,1.38297 4.61676,2.74536 7.19275,4.33145 m 7.36731,18.55005 c -1.75488,-10.47958 -7.15423,-17.70016 -17.92859,-20.19958 -5.53186,-1.28327 -10.52221,0.34735 -15.38501,2.68698 -10.18127,4.89847 -20.13696,10.56738 -32.20459,7.97607 -2.50701,-0.53833 -3.27697,1.17246 -2.85937,3.35135 2.94519,15.36536 11.33423,31.74982 29.90308,36.31574 20.10668,4.944 41.40155,-9.31705 38.47448,-30.13056 m -21.33319,-43.99212 c -13.70343,-11.72837 -28.46435,-11.81777 -38.96844,0.10803 -6.98243,7.92749 -8.3349,17.9295 -8.95929,27.9873 -0.17444,2.8093 2.30536,3.42594 4.53058,3.62387 6.03271,0.53662 12.23779,0.27887 17.67913,-2.09625 11.99738,-5.23688 23.43134,-11.88165 37.76679,-12.21481 -2.73108,-7.14856 -6.81482,-12.24021 -12.04877,-17.40814 z"
   id="path7"
   style="fill:#324b27;fill-opacity:1" />
<path
   fill="#000000"
   opacity="1"
   stroke="none"
   d="m 565.91333,303.99811 c -8.66821,-19.01905 -13.88898,-39.22641 -25.89728,-56.33557 2.84406,-2.01629 15.36188,-2.51563 21.57587,-0.52076 -1.77863,7.41552 1.95502,13.71647 4.61847,20.25446 5.84106,14.33792 11.73926,28.65271 17.6756,42.95145 0.87481,2.10711 1.42834,4.43261 3.77783,6.63131 2.90643,-6.96936 5.70331,-13.62802 8.46234,-20.30233 4.77045,-11.54035 9.63666,-23.0434 14.2171,-34.65897 1.90875,-4.84045 3.07013,-9.92227 -1.5965,-14.9106 5.97657,-1.54103 11.17884,-1.51657 16.92395,0.47281 -4.90759,3.43109 -8.16955,7.88306 -10.65008,12.93565 -7.19965,14.66532 -12.85162,29.99109 -19.20258,45.01862 -0.38873,0.91995 -0.60528,1.93091 -1.09936,2.78537 -4.83228,8.35657 -7.01325,16.79224 -1.1106,25.62814 0.40631,0.60813 0.30219,1.55719 0.47608,2.5886 -4.23285,1.52502 -8.3664,0.77563 -12.42176,0.64205 -2.4967,-0.0822 -2.93017,-2.47107 -3.67895,-4.24398 -4.01636,-9.51023 -7.95563,-19.05295 -12.07013,-28.93625 z"
   id="path4"
   style="fill:#324b27;fill-opacity:1" />
<path
   fill="#000000"
   opacity="1"
   stroke="none"
   d="m 580.59778,364.79834 c -3.64276,1.64392 -6.77643,1.6434 -9.41059,-1.1673 -1.94336,-2.07364 -2.67675,-4.53399 -1.71362,-7.30371 1.06165,-3.05301 3.16303,-5.13098 6.41541,-5.43002 3.28833,-0.30231 5.76837,1.45828 7.18841,4.30749 1.78943,3.5907 0.5456,6.70438 -2.47961,9.59354 z"
   id="path5"
   style="fill:#324b27;fill-opacity:1" />
<path
   fill="#000000"
   opacity="1"
   stroke="none"
   d="m 604.80084,361.29141 c -1.7138,3.62699 -4.37005,4.99533 -7.84698,4.48035 -3.04035,-0.45035 -5.13477,-2.29389 -5.93415,-5.29883 -0.79724,-2.99698 0.24207,-5.60318 2.38575,-7.67337 2.24499,-2.16806 4.8999,-2.62177 7.75714,-1.14114 3.88092,2.01104 4.63073,5.30825 3.63824,9.63299 z"
   id="path6"
   style="fill:#324b27;fill-opacity:1" />
</svg>
